<svg xmlns="http://www.w3.org/2000/svg" xmlns:xlink="http://www.w3.org/1999/xlink" width="500" zoomAndPan="magnify" viewBox="0 0 375 374.999991" height="500" preserveAspectRatio="xMidYMid meet" version="1.0"><defs><clipPath id="9c34f60377"><path d="M 41.25 37.5 L 294 37.5 L 294 290 L 41.25 290 Z M 41.25 37.5 " clip-rule="nonzero"/></clipPath><clipPath id="8e9a20e85d"><path d="M 244 244 L 333.351562 244 L 333.351562 337.457031 L 244 337.457031 Z M 244 244 " clip-rule="nonzero"/></clipPath></defs><g clip-path="url(#9c34f60377)"><path fill="#c5cacd" d="M 167.804688 49.40625 C 104.796875 49.40625 53.539062 100.675781 53.539062 163.683594 C 53.539062 226.691406 104.796875 277.960938 167.804688 277.960938 C 230.816406 277.960938 282.085938 226.691406 282.085938 163.683594 C 282.085938 100.675781 230.816406 49.40625 167.804688 49.40625 Z M 167.804688 289.867188 C 98.242188 289.867188 41.636719 233.261719 41.636719 163.683594 C 41.636719 94.105469 98.242188 37.503906 167.804688 37.503906 C 237.382812 37.503906 293.988281 94.105469 293.988281 163.683594 C 293.988281 233.261719 237.382812 289.867188 167.804688 289.867188 " fill-opacity="1" fill-rule="nonzero"/></g><g clip-path="url(#8e9a20e85d)"><path fill="#c5cacd" d="M 327.398438 337.457031 C 325.828125 337.457031 324.257812 336.839844 323.082031 335.609375 L 246.335938 254.917969 C 244.066406 252.535156 244.164062 248.769531 246.542969 246.503906 C 248.917969 244.246094 252.679688 244.316406 254.960938 246.710938 L 331.710938 327.402344 C 333.976562 329.785156 333.886719 333.554688 331.5 335.820312 C 330.351562 336.914062 328.875 337.457031 327.398438 337.457031 " fill-opacity="1" fill-rule="nonzero"/></g></svg>