<svg xmlns="http://www.w3.org/2000/svg" xmlns:xlink="http://www.w3.org/1999/xlink" width="500" zoomAndPan="magnify" viewBox="0 0 375 374.999991" height="500" preserveAspectRatio="xMidYMid meet" version="1.0"><defs><g/><clipPath id="50b255cc9a"><path d="M 38 132.828125 L 99 132.828125 L 99 216.078125 L 38 216.078125 Z M 38 132.828125 " clip-rule="nonzero"/></clipPath></defs><rect x="-37.5" width="450" fill="#ffffff" y="-37.499999" height="449.999989" fill-opacity="1"/><rect x="-37.5" width="450" fill="#ffffff" y="-37.499999" height="449.999989" fill-opacity="1"/><rect x="-37.5" width="450" fill="#ffffff" y="-37.499999" height="449.999989" fill-opacity="1"/><g clip-path="url(#50b255cc9a)"><path fill="#eb690a" d="M 98.484375 167.96875 L 97.082031 155.480469 C 96.832031 153.292969 94.984375 151.628906 92.792969 151.628906 L 85.808594 151.628906 L 85.808594 148.066406 C 85.808594 139.703125 79.058594 132.90625 70.75 132.90625 C 62.441406 132.90625 55.691406 139.703125 55.691406 148.066406 L 55.691406 151.628906 L 48.707031 151.628906 C 46.515625 151.628906 44.667969 153.292969 44.417969 155.480469 L 38.109375 211.21875 C 37.804688 213.890625 39.878906 216.214844 42.554688 216.214844 L 44.902344 216.214844 C 54.59375 174.335938 85.65625 168.527344 98.484375 167.96875 Z M 83.886719 156.175781 C 84.945312 156.175781 85.808594 157.046875 85.808594 158.113281 C 85.808594 159.179688 84.945312 160.050781 83.886719 160.050781 C 82.828125 160.050781 81.964844 159.179688 81.964844 158.113281 C 81.964844 157.046875 82.828125 156.175781 83.886719 156.175781 Z M 59.539062 148.085938 C 59.539062 141.871094 64.558594 136.796875 70.75 136.796875 C 76.945312 136.796875 81.964844 141.871094 81.964844 148.085938 L 81.964844 151.648438 L 59.539062 151.648438 Z M 57.613281 156.175781 C 58.671875 156.175781 59.539062 157.046875 59.539062 158.113281 C 59.539062 159.179688 58.671875 160.050781 57.613281 160.050781 C 56.554688 160.050781 55.691406 159.179688 55.691406 158.113281 C 55.691406 157.046875 56.554688 156.175781 57.613281 156.175781 Z M 57.613281 156.175781 " fill-opacity="1" fill-rule="nonzero"/></g><g fill="#545454" fill-opacity="1"><g transform="translate(71.149305, 216.352949)"><g><path d="M 14.410156 0.648438 C 21.105469 0.648438 26.648438 -2.726562 26.648438 -9.699219 C 26.648438 -16.949219 20.460938 -18.472656 15.5625 -19.722656 C 12.101562 -20.550781 9.328125 -21.246094 9.328125 -23.507812 C 9.328125 -25.632812 11.59375 -26.601562 13.855469 -26.601562 C 16.488281 -26.601562 18.796875 -25.308594 18.796875 -22.492188 L 25.679688 -22.492188 C 25.679688 -28.957031 21.476562 -32.929688 14.039062 -32.929688 C 6.882812 -32.929688 2.308594 -29.417969 2.308594 -23.230469 C 2.308594 -16.257812 8.222656 -14.824219 13.117188 -13.625 C 16.625 -12.839844 19.582031 -12.148438 19.582031 -9.605469 C 19.582031 -7.203125 16.996094 -5.820312 14.363281 -5.820312 C 11.5 -5.820312 8.914062 -7.34375 8.914062 -10.4375 L 1.847656 -10.4375 C 1.847656 -3.511719 6.972656 0.648438 14.410156 0.648438 Z M 14.410156 0.648438 "/></g></g></g><g fill="#545454" fill-opacity="1"><g transform="translate(99.732684, 216.352949)"><g><path d="M 17.503906 -25.492188 C 14.503906 -25.492188 11.871094 -24.386719 9.976562 -22.585938 L 9.976562 -33.898438 L 3.234375 -33.898438 L 3.234375 0 L 9.976562 0 L 9.976562 -13.070312 C 9.976562 -17.132812 12.191406 -19.582031 15.5625 -19.582031 C 18.566406 -19.582031 19.90625 -17.734375 19.90625 -13.992188 L 19.90625 0 L 26.648438 0 L 26.648438 -15.148438 C 26.648438 -21.476562 23.136719 -25.492188 17.503906 -25.492188 Z M 17.503906 -25.492188 "/></g></g></g><g fill="#545454" fill-opacity="1"><g transform="translate(129.331948, 216.352949)"><g><path d="M 15.054688 0.738281 C 22.769531 0.738281 28.542969 -4.941406 28.542969 -12.46875 C 28.542969 -20 22.769531 -25.632812 15.054688 -25.632812 C 7.34375 -25.632812 1.570312 -20 1.570312 -12.46875 C 1.570312 -4.941406 7.34375 0.738281 15.054688 0.738281 Z M 15.054688 -5.632812 C 11.175781 -5.632812 8.40625 -8.40625 8.40625 -12.46875 C 8.40625 -16.488281 11.175781 -19.304688 15.054688 -19.304688 C 18.9375 -19.304688 21.707031 -16.488281 21.707031 -12.46875 C 21.707031 -8.40625 18.9375 -5.632812 15.054688 -5.632812 Z M 15.054688 -5.632812 "/></g></g></g><g fill="#545454" fill-opacity="1"><g transform="translate(159.485331, 216.352949)"><g><path d="M 16.8125 -25.632812 C 13.71875 -25.632812 10.945312 -24.523438 8.820312 -22.628906 L 7.667969 -24.941406 L 3.234375 -24.941406 L 3.234375 9.007812 L 9.976562 9.007812 L 9.976562 -1.339844 C 11.871094 0 14.226562 0.785156 16.8125 0.785156 C 24.339844 0.785156 29.882812 -4.894531 29.882812 -12.46875 C 29.882812 -20 24.339844 -25.632812 16.8125 -25.632812 Z M 16.257812 -5.632812 C 12.332031 -5.632812 9.46875 -8.542969 9.46875 -12.46875 C 9.46875 -16.347656 12.332031 -19.304688 16.257812 -19.304688 C 20.183594 -19.304688 23.046875 -16.347656 23.046875 -12.46875 C 23.046875 -8.542969 20.183594 -5.632812 16.257812 -5.632812 Z M 16.257812 -5.632812 "/></g></g></g><g fill="#545454" fill-opacity="1"><g transform="translate(190.977843, 216.352949)"><g><path d="M 23.136719 -17.042969 C 25.402344 -18.613281 26.789062 -21.199219 26.789062 -23.96875 C 26.789062 -28.726562 22.628906 -32.285156 17.042969 -32.285156 L 3.695312 -32.285156 L 3.695312 0.046875 L 17.410156 0.046875 C 23.046875 0.046875 27.617188 -4.109375 27.617188 -9.28125 C 27.617188 -12.746094 25.957031 -15.519531 23.136719 -17.042969 Z M 20 -22.90625 C 20 -20.875 18.566406 -19.445312 16.394531 -19.445312 L 10.53125 -19.445312 L 10.53125 -26.324219 L 16.394531 -26.324219 C 18.566406 -26.324219 20 -24.941406 20 -22.90625 Z M 16.765625 -6.375 L 10.53125 -6.375 L 10.53125 -13.625 L 16.765625 -13.625 C 19.074219 -13.625 20.597656 -12.101562 20.597656 -10.023438 C 20.597656 -7.898438 19.074219 -6.375 16.765625 -6.375 Z M 16.765625 -6.375 "/></g></g></g><g fill="#545454" fill-opacity="1"><g transform="translate(220.623283, 216.352949)"><g><path d="M 23.554688 -24.941406 L 22.863281 -22.585938 C 20.691406 -24.476562 17.875 -25.632812 14.640625 -25.632812 C 7.160156 -25.632812 1.570312 -20 1.570312 -12.46875 C 1.570312 -4.941406 7.160156 0.738281 14.640625 0.738281 C 17.828125 0.738281 20.597656 -0.371094 22.722656 -2.261719 L 23.324219 0 L 28.589844 0 L 28.589844 -24.941406 Z M 15.195312 -5.632812 C 11.269531 -5.632812 8.40625 -8.589844 8.40625 -12.46875 C 8.40625 -16.394531 11.269531 -19.304688 15.195312 -19.304688 C 19.121094 -19.304688 21.984375 -16.394531 21.984375 -12.46875 C 21.984375 -8.542969 19.121094 -5.632812 15.195312 -5.632812 Z M 15.195312 -5.632812 "/></g></g></g><g fill="#545454" fill-opacity="1"><g transform="translate(252.485212, 216.352949)"><g><path d="M 23.371094 -24.941406 L 22.261719 -22.445312 C 20.089844 -24.433594 17.226562 -25.632812 13.992188 -25.632812 C 7.019531 -25.632812 1.570312 -20.089844 1.570312 -13.117188 C 1.570312 -6.097656 7.019531 -0.601562 13.992188 -0.601562 C 16.671875 -0.601562 19.121094 -1.433594 21.105469 -2.816406 L 21.105469 -1.894531 C 21.105469 1.753906 18.289062 3.972656 14.871094 3.972656 C 12.378906 3.972656 9.746094 2.816406 8.960938 0.554688 L 2.261719 0.554688 C 3.417969 6.234375 8.222656 9.699219 14.964844 9.699219 C 22.863281 9.699219 27.710938 4.941406 27.710938 -2.863281 L 27.710938 -24.894531 Z M 14.777344 -6.652344 C 11.085938 -6.652344 8.40625 -9.375 8.40625 -13.070312 C 8.40625 -16.8125 11.085938 -19.535156 14.777344 -19.535156 C 18.472656 -19.535156 21.152344 -16.8125 21.152344 -13.070312 C 21.152344 -9.375 18.472656 -6.652344 14.777344 -6.652344 Z M 14.777344 -6.652344 "/></g></g></g></svg>